<svg width="48" height="48" viewBox="0 0 48 48" fill="none" xmlns="http://www.w3.org/2000/svg">
<rect x="4" y="4" width="40" height="40" rx="20" fill="#FBE1C3"/>
<path d="M33.1663 23.1567V24C33.1652 25.9768 32.5251 27.9002 31.3416 29.4834C30.158 31.0666 28.4944 32.2248 26.5988 32.7853C24.7032 33.3458 22.6772 33.2784 20.8229 32.5934C18.9687 31.9084 17.3856 30.6423 16.3097 28.984C15.2338 27.3257 14.7228 25.3641 14.8529 23.3917C14.9829 21.4192 15.7471 19.5417 17.0314 18.039C18.3157 16.5364 20.0514 15.4891 21.9795 15.0535C23.9076 14.6179 25.9249 14.8172 27.7305 15.6217M33.1663 16.6667L23.9997 25.8425L21.2497 23.0925" stroke="#F75500" stroke-width="2" stroke-linecap="round" stroke-linejoin="round"/>
<rect x="4" y="4" width="40" height="40" rx="20" stroke="#FFBC6B" stroke-width="8"/>
</svg>
