<svg width="66" height="66" viewBox="0 0 66 66" fill="none" xmlns="http://www.w3.org/2000/svg">
<path d="M5 33C5 17.536 17.536 5 33 5C48.464 5 61 17.536 61 33C61 48.464 48.464 61 33 61C17.536 61 5 48.464 5 33Z" fill="#FBE1C3"/>
<path d="M38.8337 43.5V41.1667C38.8337 39.929 38.342 38.742 37.4668 37.8668C36.5917 36.9917 35.4047 36.5 34.167 36.5H24.8337C23.596 36.5 22.409 36.9917 21.5338 37.8668C20.6587 38.742 20.167 39.929 20.167 41.1667V43.5M45.8337 43.5V41.1667C45.8329 40.1327 45.4887 39.1282 44.8553 38.311C44.2218 37.4938 43.3348 36.9102 42.3337 36.6517M37.667 22.6517C38.6708 22.9087 39.5605 23.4925 40.1959 24.311C40.8313 25.1296 41.1761 26.1363 41.1761 27.1725C41.1761 28.2087 40.8313 29.2154 40.1959 30.034C39.5605 30.8525 38.6708 31.4363 37.667 31.6933M34.167 27.1667C34.167 29.744 32.0777 31.8333 29.5003 31.8333C26.923 31.8333 24.8337 29.744 24.8337 27.1667C24.8337 24.5893 26.923 22.5 29.5003 22.5C32.0777 22.5 34.167 24.5893 34.167 27.1667Z" stroke="#F75500" stroke-width="2.33333" stroke-linecap="round" stroke-linejoin="round"/>
<path d="M33 56C20.2975 56 10 45.7025 10 33H0C0 51.2254 14.7746 66 33 66V56ZM56 33C56 45.7025 45.7025 56 33 56V66C51.2254 66 66 51.2254 66 33H56ZM33 10C45.7025 10 56 20.2975 56 33H66C66 14.7746 51.2254 0 33 0V10ZM33 0C14.7746 0 0 14.7746 0 33H10C10 20.2975 20.2975 10 33 10V0Z" fill="#FFBC6B"/>
</svg>
